<svg width="1000" height="1400" viewBox="0 0 1000 1400" fill="none" xmlns="http://www.w3.org/2000/svg">
<rect width="1000" height="1400" fill="#1E1E1E"/>
<g id="Frame 1">
<rect width="1000" height="1400" fill="white"/>
<path id="hand-left" d="M713.5 122.5L710.5 120H707.5L706.5 122.5V125L708 129.5V134.5V139.5L708.5 146V153.5L709 162.5L709.5 168.5L707.5 174L706 179.5L705 185.5L704 192L698.5 206.5L688 227.5L675 248.5L663.5 267L654 279.5V300.5V332V355L660 350L663.5 344L668 339L671.5 336L677.5 334.5L679.5 329.5L688 318L697.5 301.5L707 283L713 267L718 253.5L724 227.5L730 203L734 186L735 178.5L739.5 177L744.5 173L750.5 167.5L755.5 162L760 156.5L765.5 151.5L769 147L770.5 142L771.5 138V135.5L771 132V128L772 124.5L771 121.5L770 119.5L769 116.5L767.5 114L764.5 113.5L761 114H757.5L753 116.5L749 120L744.5 124L739 129.5L735 133L730 136L724.5 140L720 142.5H717.5V140.5V137V133V129.5L716 125.5L713.5 122.5Z" stroke="black"/>
<path id="hair" d="M421.5 351.5L418.5 347.5H425.5H433.5L439.5 344L447 341L449 333L450 326.5V322V312.5V308.5L452.5 302L455.5 299.5L457 295L458.5 291.5V286L459.5 279.5L455.5 282.5L452.5 286V291.5L450 297L447 302L444 308.5L443 314L441 319L439.5 324L437.5 329.5L436 334.5L431.5 338.5L428 342L424.5 344L421.5 342L424.5 341L428 337L425.5 333V328L428 322L429.5 315L437.5 311L441 305L447 293L450 284.5L455.5 280.5L458.5 275.5L463.5 270.5V264.5L469.5 257.5L476.5 252.5L483 248.5L491 246.5H499H506H513.5L521 249.5L529 256L533 260.5L535 264.5L537 270.5L539.5 275.5L543 280.5L544.5 286L548 295L550.5 299.5L553.5 305V311V315V319L552.5 322L553.5 326.5L555.5 333L558 335.5L562.5 334.5H568L571.5 335.5L576 338.5L580.5 340L585.5 338.5L589 335.5H593V338.5L591.5 342L589 344H583L580.5 347.5H578.5L576 353V357L573 360L571.5 361.5L568.5 360H566L562.5 361.5L558 363.5L553.5 365L548 368L544.5 366.5L540.5 368L537 369.5L530.5 366.5L526 363.5V355.5L522.5 351.5L513.5 353H508H502.5L497.5 355.5H489.5L483.5 357L478.5 358.5L483.5 363.5L487.5 368L485 374.5L489.5 377V382.5V387.5L485 385.5L483.5 380H480.5L478.5 382.5L476.5 381V374.5L473 372.5H463.5L458.5 378.5L455.5 382.5L452.5 378.5L450 374.5L444 372.5L441 368L444 363.5L441 358.5L437.5 355.5H431.5L428 353L421.5 351.5Z" stroke="black"/>
<path id="face" d="M506.5 256L501 254.5L499 253L496 253.5L494 256L489.5 258.5L483 263L477.5 268L474.5 274L472.5 279.5L469.5 288L470.5 295L473 297L476 300.5L478.5 303L479.5 305.5V309L481.5 312.5L483 319L485 322V324.5L487 326.5L488.5 328L489.5 329L491.5 331.5L493.5 332.5L498 336.5L501 334.5L504.5 333L510.5 330.5L517.5 327L523 323H525L526 317L526.5 310V304.5L528.5 300.5L531.5 297L530.5 295L528.5 293L529.5 289.5V286.5L527.5 281.5L526.5 276L525 271L522 269L520 266.5L517 265L515.5 263.5L514.5 260.5L512 257.5L506.5 256Z" stroke="black"/>
<path id="hand-right" d="M341.5 295.5L346 300.5L349 303.5L352 308L351 314H348L344.5 314.5L343.5 324.5L342 336L341 355.5L336.5 370.5L332.5 391L329.5 413.5L325.5 442.5L323 419.5V405V381.5V366.5L319 346.5L312.5 340L309.5 336.5L304.5 323.5L298 305.5L293.5 287.5L286 255.5L281.5 240L278 212.5L277 198.5L274 186L270.5 181L267 177.5L263.5 171.5L260.5 168L257 165L254 161L250.5 158L247 155L244.5 152L242.5 147.5L241 144L242.5 140L243.5 137L244.5 134L243.5 131V129L243 126L245 124L246.5 122.5L246 120.5L246.5 116.5L248 115.5L251 116.5L253.5 119L256 121H258.5L261.5 121.5L263.5 124L265.5 126L268 129.5L271 133L274 135.5L277.5 138.5L282 142.5L288 147.5L292 151L297 152L300.5 151L302.5 146.5L305 139.5L307.5 136.5L310.5 133H313L315 134.5L316.5 137L315.5 139.5L314 142L311.5 145.5L309.5 150L308.5 155L307.5 161L306 168L305 175.5L303 181V186.5V192.5L305 198.5L306 205L308.5 212L309.5 218L311.5 222.5L313.5 228.5L317.5 236.5L323.5 246L327.5 255.5L331.5 265.5L335 275.5L338.5 286.5L341.5 295.5Z" stroke="black"/>
<path id="slab" d="M687 1078H623.5L618 1084.5L610.5 1093L603.5 1094.5H575.5L557.5 1095.5L553.5 1092L548 1090L544 1093L539 1095.5L535 1097L532 1098L527.5 1099L523.5 1098L521.5 1097H516.5L511.5 1098L508.5 1095.5L506 1093H499L490 1089L484.5 1088L476 1089L469 1090L465.5 1089L456.5 1088L450 1086L444.5 1085L434.5 1081.5L424.5 1079L419.5 1078H319L327 1182L336 1249.5L343.5 1294.5V1319L247 1354L263.5 1363.5L308 1374L343.5 1379H363.5L399 1399H470H735V1350L753.5 1363.5L778 1354.5L784.5 1342L804.5 1322L793 1232.5L739.5 1179L691.5 1132.5L687 1078Z" stroke="black"/>
<path id="rays" d="M573 264C573 279.416 568.221 293.716 560.064 305.5C552.5 311.5 552.085 290.5 546.5 280C540.915 269.5 539 263.5 530.5 255C522 249 511.281 244.5 500 244.5C489.888 244.5 465.244 249 459.5 272.5C453.756 296 453 302 450.5 307C445 313 441.201 307.801 437.658 302C430.896 290.931 427 277.92 427 264C427 223.683 459.683 191 500 191C540.317 191 573 223.683 573 264Z" fill="#D9D9D9"/>
</g>
</svg>
