<svg width="1000" height="1400" viewBox="0 0 1000 1400" fill="none" xmlns="http://www.w3.org/2000/svg">
<rect width="1000" height="1400" fill="#1E1E1E"/>
<g id="Frame 1" clip-path="url(#clip0_6_2)">
<rect width="1000" height="1400" fill="white"/>
<path id="hand-left" d="M713.5 122.5L710.5 120H707.5L706.5 122.5V125L708 129.5V134.5V139.5L708.5 146V153.5L709 162.5L709.5 168.5L707.5 174L706 179.5L705 185.5L704 192L698.5 206.5L688 227.5L675 248.5L663.5 267L654 279.5V300.5V332V355L660 350L663.5 344L668 339L671.5 336L677.5 334.5L679.5 329.5L688 318L697.5 301.5L707 283L713 267L718 253.5L724 227.5L730 203L734 186L735 178.5L739.5 177L744.5 173L750.5 167.5L755.5 162L760 156.5L765.5 151.5L769 147L770.5 142L771.5 138V135.5L771 132V128L772 124.5L771 121.5L770 119.5L769 116.5L767.5 114L764.5 113.5L761 114H757.5L753 116.5L749 120L744.5 124L739 129.5L735 133L730 136L724.5 140L720 142.5H717.5V140.5V137V133V129.5L716 125.5L713.5 122.5Z" stroke="black"/>
<path id="hair" d="M421.5 351.5L418.5 347.5H425.5H433.5L439.5 344L447 341L449 333L450 326.5V322V312.5V308.5L452.5 302L455.5 299.5L457 295L458.5 291.5V286L459.5 279.5L455.5 282.5L452.5 286V291.5L450 297L447 302L444 308.5L443 314L441 319L439.5 324L437.5 329.5L436 334.5L431.5 338.5L428 342L424.5 344L421.5 342L424.5 341L428 337L425.5 333V328L428 322L429.5 315L437.5 311L441 305L447 293L450 284.5L455.5 280.5L458.5 275.5L463.5 270.5V264.5L469.5 257.5L476.5 252.5L483 248.5L491 246.5H499H506H513.5L521 249.5L529 256L533 260.5L535 264.5L537 270.5L539.5 275.5L543 280.5L544.5 286L548 295L550.5 299.5L553.5 305V311V315V319L552.5 322L553.5 326.5L555.5 333L558 335.5L562.5 334.5H568L571.5 335.5L576 338.5L580.5 340L585.5 338.5L589 335.5H593V338.5L591.5 342L589 344H583L580.5 347.5H578.5L576 353V357L573 360L571.5 361.5L568.5 360H566L562.5 361.5L558 363.5L553.5 365L548 368L544.5 366.5L540.5 368L537 369.5L530.5 366.5L526 363.5V355.5L522.5 351.5L513.5 353H508H502.5L497.5 355.5H489.5L483.5 357L478.5 358.5L483.5 363.5L487.5 368L485 374.5L489.5 377V382.5V387.5L485 385.5L483.5 380H480.5L478.5 382.5L476.5 381V374.5L473 372.5H463.5L458.5 378.5L455.5 382.5L452.5 378.5L450 374.5L444 372.5L441 368L444 363.5L441 358.5L437.5 355.5H431.5L428 353L421.5 351.5Z" stroke="black"/>
<path id="face" d="M506.5 256L501 254.5L499 253L496 253.5L494 256L489.5 258.5L483 263L477.5 268L474.5 274L472.5 279.5L469.5 288L470.5 295L473 297L476 300.5L478.5 303L479.5 305.5V309L481.5 312.5L483 319L485 322V324.5L487 326.5L488.5 328L489.5 329L491.5 331.5L493.5 332.5L498 336.5L501 334.5L504.5 333L510.5 330.5L517.5 327L523 323H525L526 317L526.5 310V304.5L528.5 300.5L531.5 297L530.5 295L528.5 293L529.5 289.5V286.5L527.5 281.5L526.5 276L525 271L522 269L520 266.5L517 265L515.5 263.5L514.5 260.5L512 257.5L506.5 256Z" stroke="black"/>
<path id="hand-right" d="M341.5 295.5L346 300.5L349 303.5L352 308L351 314H348L344.5 314.5L343.5 324.5L342 336L341 355.5L336.5 370.5L332.5 391L329.5 413.5L325.5 442.5L323 419.5V405V381.5V366.5L319 346.5L312.5 340L309.5 336.5L304.5 323.5L298 305.5L293.5 287.5L286 255.5L281.5 240L278 212.5L277 198.5L274 186L270.5 181L267 177.5L263.5 171.5L260.5 168L257 165L254 161L250.5 158L247 155L244.5 152L242.5 147.5L241 144L242.5 140L243.5 137L244.5 134L243.5 131V129L243 126L245 124L246.5 122.5L246 120.5L246.5 116.5L248 115.5L251 116.5L253.5 119L256 121H258.5L261.5 121.5L263.5 124L265.5 126L268 129.5L271 133L274 135.5L277.5 138.5L282 142.5L288 147.5L292 151L297 152L300.5 151L302.5 146.5L305 139.5L307.5 136.5L310.5 133H313L315 134.5L316.5 137L315.5 139.5L314 142L311.5 145.5L309.5 150L308.5 155L307.5 161L306 168L305 175.5L303 181V186.5V192.5L305 198.5L306 205L308.5 212L309.5 218L311.5 222.5L313.5 228.5L317.5 236.5L323.5 246L327.5 255.5L331.5 265.5L335 275.5L338.5 286.5L341.5 295.5Z" stroke="black"/>
<path id="slab" d="M687 1078H623.5L618 1084.5L610.5 1093L603.5 1094.5H575.5L557.5 1095.5L553.5 1092L548 1090L544 1093L539 1095.5L535 1097L532 1098L527.5 1099L523.5 1098L521.5 1097H516.5L511.5 1098L508.5 1095.5L506 1093H499L490 1089L484.5 1088L476 1089L469 1090L465.5 1089L456.5 1088L450 1086L444.5 1085L434.5 1081.5L424.5 1079L419.5 1078H319L327 1182L336 1249.5L343.5 1294.5V1319L247 1354L263.5 1363.5L308 1374L343.5 1379H363.5L399 1399H470H735V1350L753.5 1363.5L778 1354.5L784.5 1342L804.5 1322L793 1232.5L739.5 1179L691.5 1132.5L687 1078Z" stroke="black"/>
<path id="rays" d="M573 264C573 279.416 568.221 293.716 560.064 305.5C552.5 311.5 552.085 290.5 546.5 280C540.915 269.5 539 263.5 530.5 255C522 249 511.281 244.5 500 244.5C489.888 244.5 465.244 249 459.5 272.5C453.756 296 453 302 450.5 307C445 313 441.201 307.801 437.658 302C430.896 290.931 427 277.92 427 264C427 223.683 459.683 191 500 191C540.317 191 573 223.683 573 264Z" fill="#D9D9D9"/>
<path id="angel-left" d="M738 1178L723 1163.5L726 1156.5L729 1144L731.5 1123L733 1117.5V1113.5L735 1108.5L736.5 1103.5V1099L738.5 1093L743 1083.5L744.5 1061.5L744 1028L743.5 1006L746 995L749 987L747.5 982.5L746 979.5L743.5 973.5V968L741 963.5L737.5 962L731 958.5L725.5 954.5L723 947.5L722 935L724.5 925.5L726.5 912.5L732 902L737.5 895.5L746.5 884.5L753 876.5L752 870.5L749 862V855.5L751 845L753 838.5L762.5 828L774 819L782 816L788.5 811L794.5 804L801.5 799L804 793.5V782L801.5 774.5L796 770L790 766.5L785 765L778.5 762.5L776 760.5L775 757.5L776 754L777.5 750L777 747V744L778 741L777.5 737.5V735.5L778 733L775 731.5L773 729V724.5L773.5 720L778 716.5L782.5 711.5L787.5 705L789.5 700L791 695L793 688L796.5 685.5L799 682.5L801.5 680.5L806 678L807.5 673.5L810.5 671L813 669.5H816.5L820 671.5L824 672.5H828.5L832 671.5L837 672.5L842.5 673.5H845L848 676L851.5 676.5L857.5 678L862 681L866 684.5L871 689L875.5 693.5L879 700.5L880 706V716.5V721L881 725.5L881.5 729.5L886.5 734L888.5 739L890 743L889.5 747L887 750.5L884.5 752.5L885.5 754.5L887.5 755.5L893 756.5L897 760L900 763L903 766L904 771.5L903 776.5H906.5L914 777L918 769.5L922.5 762L929 753.5L938.5 745.5L949 741.5L958.5 740L967.5 741L975 744L982.5 749.5L988.5 754.5L994.5 757L1000.5 759V1231L975.5 1132.5L964 1151L953 1144.5L939 1162.5L923.5 1151L914.5 1120V1106.5L905 1117.5L901.5 1110L898.5 1113.5V1118.5L900 1122L902.5 1136.5L905 1151L910.5 1162.5L923.5 1193L932 1202L939 1212L941 1219L947 1214L961.5 1208.5L971 1212L999.178 1240L1000.5 1246V1312.5H985.5L953 1309H914.5H865.5L846 1305.5L836.5 1302L829.5 1295L826 1287.5L821 1283.5L813 1281L809.5 1275.5L803.5 1262.5L795.5 1243.5L788.5 1227.5L777.5 1221L771.5 1212L764.5 1203.5L757.5 1195L748 1187.5L738 1178Z" stroke="black"/>
<path id="armor" d="M26.5 1330.5L19 1333V1334L23 1336L29 1338L36.5 1340L44.5 1342.5L54.5 1344H60.5L65 1345L70 1346L72.5 1350L74.5 1354L75.5 1358L74.5 1362L78 1365H82.5L88.5 1363L96.5 1360.5L104 1359.5L108 1358L112.5 1360.5L116 1363H120.5L125.5 1362L129 1360.5L134 1358L140.5 1355.5L144 1354L152.5 1352V1346V1333L150.5 1319L147.5 1306L142 1290L138 1281L130.5 1268L111.5 1258.5L86 1254.5H64.5L50 1261L41 1268V1276L39.5 1281L38.5 1289L36.5 1292.5V1300.5V1309V1318.5L35 1324L31.5 1327.5L26.5 1330.5Z" stroke="black"/>
<path id="robe" d="M678.5 343.5L676 332.5L673 334L672 340L671 347.5V357.5L670 367L669 378L667 392.5L665.5 382.5V375.5V365.5V358.5L667 338.5L664 343.5L660.5 349.5L655 357.5V354L653.5 331.5V304V294.5V280.5L649.5 285L644 291.5L639 297L635 303L629 305.5L622 312L614.5 316.5L606 325.5H602H594.5L587 324.5L578 323L569.5 318L563.5 312L559.5 305.5L557 300L555 295L553 289L549 283.5L546.5 277.5L542.5 273L541 269L539.5 264.5L532 259.5L535.5 263.5L536.5 269L537.5 273L542.5 276.5L544 281.5L546.5 287L549 295L551.5 302L553 312V319V325.5L555 329L557 335H560.5L563.5 334H569.5L573 337L578 339H582H587L586 342.5L582 344L578 348L576 353L575 357.5L573 360.5L569.5 363H565.5L560.5 365.5H555L547.5 368H544L537.5 373L533.5 380L526.5 393.5L522.5 405L515 424L501.5 459L483 491L467 516.5L454 534.5L441 547L429 557.5L422 562L415.5 561L407.5 556.5L405 549L403.5 542L402 536L400 530.5L398.5 524L397 515L395.5 501.5V488L394.5 472.5L395.5 459.5L397 452.5L398.5 446.5L401 440L403 429.5L406 417.5L409 405.5L414 395.5L421 385L428.5 373.5L439 368L443.5 365.5L442.5 361L439 358L428.5 354.5L418 348.5L399.5 336.5L397.5 334.5L396 331.5L392.5 329L389 326.5L386 322H382.5L379 320L373 314L365.5 308.5L362.5 304.5L353.5 296H351L350 297L349.5 303L343.5 315V324L341.5 341L339.5 355.5L336 374L334 394.5L330.5 425L326.5 453L323 426.5L322 406V374.5L323 361L318 344.5L316 341H310.5L309.5 344.5V350V372.5L310.5 395.5L312 408.5L316 431L319 451V485.5V556L318.5 570V581.5L319 588.5L318.5 600.5L319 611.5L316 615.5L314 621.5V628.5L319 633L323.5 640.5L329 649L332.5 656L339 663.5L344 660L346.5 654L348 645.5V633L349.5 623.5L355.5 615.5L363.5 609.5L367.5 615.5V622.5L373 633L378.5 647.5L382.5 656L392.5 665H405.5H424L426.5 677L424 694L418.5 723L415.5 735.5L410 759.5L412 769L410 778.5L407.5 792L412 805.5L418.5 807.5L422.5 811L426.5 815.5L424 819L422.5 822L420.5 826L418.5 831L422.5 832L426.5 834L427.5 841L429 843.5V846.5L427.5 848L424 849L426.5 868.5V894.5L429 914V930.5V940.5L430 948.5L433 953L429 958.5L431 967L433 981.5L434 997.5L433 1004V1009.5L437.5 1014L439.5 1018L444.5 1020.5L446.5 1024.5L445.5 1028.5L441 1032.5L437.5 1035L431 1040.5L426.5 1045L424.5 1054V1072L429 1074H437.5L442.5 1078L449 1082.5L454.5 1085H458L464 1087.5H474.5L478.5 1082.5L481.5 1078L487.5 1079.5L497.5 1072L502.5 1069L509.5 1065.5L512 1064L515 1063L518 1064L520 1065.5L524 1067.5L531 1070L535 1074.5L538.5 1078L543 1079L550.5 1083L555.5 1090.5L560 1092.5L565.5 1090.5H569.5H575L580 1093.5L582.5 1092.5V1088.5L580 1085.5L578 1083L576.5 1078L573 1074.5L569.5 1072L565.5 1070L567.5 1067.5H571H575L578 1065.5H584.5H590V1074.5L591 1083L594.5 1088.5L609 1090.5L616 1087L620.5 1080L621.5 1072L623.5 1061L625 1052.5L630.5 1034L634.5 1016L633 967L631 932.5V903L632 892L637 868.5L634.5 866V863L636 859V856L637 849L640.5 844.5L642.5 838.5L644 834L645.5 829L649 822.5L650 817L652 810L654.5 799.5L658 794.5L663.5 784.5L666 772.5L667 764L668 751.5L669 732V724.5V708.5L670 697L673 685L674 679.5L673 674.5V659.5L675.5 645L678 625V614.5L680 610L680.5 598.5L683 596.5L684 587L686 582L687 556L687.5 520V485.5V455L686.5 429.5L685 407.5L683 392.5L682 386.5L680.5 374.5L680 368L678.5 358.5L678 351.5L678.5 343.5Z" stroke="black"/>
</g>
<defs>
<clipPath id="clip0_6_2">
<rect width="1000" height="1400" fill="white"/>
</clipPath>
</defs>
</svg>
